<svg width="290" height="290" viewBox="0 0 290 290" fill="none" xmlns="http://www.w3.org/2000/svg">
<g filter="url(#filter0_d_4:44)">
<circle cx="145" cy="145" r="125" fill="white" fill-opacity="0.22" shape-rendering="crispEdges"/>
<circle cx="145" cy="145" r="121" stroke="white" stroke-width="8" shape-rendering="crispEdges"/>
</g>
<g filter="url(#filter1_d_4:44)">
<path d="M81.7607 145.326C81.7607 148.424 80.9059 150.811 79.1963 152.486C77.4951 154.162 75.0999 155 72.0107 155H66.0059V136.439H72.4297C75.4089 136.439 77.7067 137.201 79.3232 138.725C80.9482 140.248 81.7607 142.449 81.7607 145.326ZM76.5557 145.504C76.5557 143.803 76.2171 142.542 75.54 141.721C74.8714 140.9 73.8516 140.489 72.4805 140.489H71.0205V150.887H72.1377C73.6611 150.887 74.7783 150.447 75.4893 149.566C76.2002 148.678 76.5557 147.324 76.5557 145.504ZM93.4912 140.362C93.9229 140.362 94.3333 140.396 94.7227 140.464L95.002 140.515L94.5576 145.199C94.1514 145.098 93.5885 145.047 92.8691 145.047C91.7858 145.047 90.9987 145.297 90.5078 145.796C90.0169 146.287 89.7715 146.998 89.7715 147.929V155H84.8076V140.616H88.502L89.2764 142.914H89.5176C89.9323 142.152 90.5078 141.539 91.2441 141.073C91.9889 140.599 92.738 140.362 93.4912 140.362ZM106.402 155L105.45 153.096H105.349C104.68 153.925 103.999 154.492 103.305 154.797C102.611 155.102 101.714 155.254 100.613 155.254C99.2591 155.254 98.1927 154.848 97.4141 154.035C96.6354 153.223 96.2461 152.08 96.2461 150.607C96.2461 149.076 96.7793 147.937 97.8457 147.192C98.9121 146.439 100.457 146.016 102.479 145.923L104.879 145.847V145.644C104.879 144.459 104.295 143.866 103.127 143.866C102.077 143.866 100.744 144.222 99.1279 144.933L97.6934 141.657C99.3691 140.794 101.485 140.362 104.041 140.362C105.886 140.362 107.312 140.819 108.319 141.733C109.335 142.647 109.843 143.925 109.843 145.567V155H106.402ZM102.721 151.75C103.322 151.75 103.834 151.56 104.257 151.179C104.688 150.798 104.904 150.303 104.904 149.693V148.576L103.762 148.627C102.128 148.686 101.312 149.287 101.312 150.43C101.312 151.31 101.781 151.75 102.721 151.75ZM125.598 155L123.973 148.145L123.592 146.075L123.338 144.412H123.262C122.847 146.782 122.568 148.276 122.424 148.894L120.964 155H115.746L111.823 140.616H116.711L117.879 146.139C118.251 148.035 118.467 149.609 118.526 150.861H118.603C118.628 150.083 118.861 148.602 119.301 146.418L120.634 140.616H126.118L127.337 146.494C127.726 148.365 127.972 149.82 128.073 150.861H128.149C128.2 150.218 128.285 149.418 128.403 148.462C128.522 147.497 128.653 146.723 128.797 146.139L130.066 140.616H134.853L130.904 155H125.598ZM153.02 155L152.067 153.096H151.966C151.297 153.925 150.616 154.492 149.922 154.797C149.228 155.102 148.331 155.254 147.23 155.254C145.876 155.254 144.81 154.848 144.031 154.035C143.253 153.223 142.863 152.08 142.863 150.607C142.863 149.076 143.396 147.937 144.463 147.192C145.529 146.439 147.074 146.016 149.097 145.923L151.496 145.847V145.644C151.496 144.459 150.912 143.866 149.744 143.866C148.695 143.866 147.362 144.222 145.745 144.933L144.311 141.657C145.986 140.794 148.102 140.362 150.658 140.362C152.503 140.362 153.929 140.819 154.937 141.733C155.952 142.647 156.46 143.925 156.46 145.567V155H153.02ZM149.338 151.75C149.939 151.75 150.451 151.56 150.874 151.179C151.306 150.798 151.521 150.303 151.521 149.693V148.576L150.379 148.627C148.745 148.686 147.929 149.287 147.929 150.43C147.929 151.31 148.398 151.75 149.338 151.75ZM171.821 155H166.883V136.439H177.852V140.464H171.821V144.006H177.382V148.03H171.821V155ZM189.988 155L189.036 153.096H188.935C188.266 153.925 187.585 154.492 186.891 154.797C186.197 155.102 185.299 155.254 184.199 155.254C182.845 155.254 181.779 154.848 181 154.035C180.221 153.223 179.832 152.08 179.832 150.607C179.832 149.076 180.365 147.937 181.432 147.192C182.498 146.439 184.043 146.016 186.065 145.923L188.465 145.847V145.644C188.465 144.459 187.881 143.866 186.713 143.866C185.663 143.866 184.33 144.222 182.714 144.933L181.279 141.657C182.955 140.794 185.071 140.362 187.627 140.362C189.472 140.362 190.898 140.819 191.905 141.733C192.921 142.647 193.429 143.925 193.429 145.567V155H189.988ZM186.307 151.75C186.908 151.75 187.42 151.56 187.843 151.179C188.274 150.798 188.49 150.303 188.49 149.693V148.576L187.348 148.627C185.714 148.686 184.897 149.287 184.897 150.43C184.897 151.31 185.367 151.75 186.307 151.75ZM203.356 155.254C201.004 155.254 199.218 154.619 197.999 153.35C196.789 152.08 196.184 150.256 196.184 147.878C196.184 145.491 196.84 143.642 198.151 142.33C199.463 141.018 201.329 140.362 203.75 140.362C205.417 140.362 206.987 140.726 208.46 141.454L207 145.123C206.399 144.861 205.845 144.653 205.337 144.501C204.829 144.34 204.3 144.26 203.75 144.26C202.946 144.26 202.324 144.573 201.884 145.199C201.444 145.826 201.224 146.71 201.224 147.853C201.224 150.155 202.074 151.306 203.775 151.306C205.231 151.306 206.628 150.882 207.965 150.036V153.984C206.687 154.831 205.151 155.254 203.356 155.254ZM217.766 155.254C215.37 155.254 213.508 154.619 212.18 153.35C210.859 152.072 210.199 150.256 210.199 147.903C210.199 145.474 210.813 143.612 212.04 142.317C213.267 141.014 215.019 140.362 217.296 140.362C219.463 140.362 221.134 140.929 222.311 142.063C223.495 143.189 224.088 144.814 224.088 146.938V149.147H215.214C215.248 149.951 215.54 150.582 216.09 151.039C216.648 151.496 217.406 151.725 218.362 151.725C219.234 151.725 220.034 151.644 220.762 151.483C221.498 151.314 222.294 151.031 223.148 150.633V154.2C222.37 154.598 221.566 154.873 220.736 155.025C219.907 155.178 218.917 155.254 217.766 155.254ZM217.474 143.739C216.89 143.739 216.399 143.925 216.001 144.298C215.612 144.662 215.383 145.237 215.315 146.024H219.581C219.564 145.33 219.365 144.776 218.984 144.361C218.612 143.947 218.108 143.739 217.474 143.739Z" fill="white"/>
</g>
<defs>
<filter id="filter0_d_4:44" x="0" y="0" width="290" height="290" filterUnits="userSpaceOnUse" color-interpolation-filters="sRGB">
<feFlood flood-opacity="0" result="BackgroundImageFix"/>
<feColorMatrix in="SourceAlpha" type="matrix" values="0 0 0 0 0 0 0 0 0 0 0 0 0 0 0 0 0 0 127 0" result="hardAlpha"/>
<feOffset/>
<feGaussianBlur stdDeviation="10"/>
<feComposite in2="hardAlpha" operator="out"/>
<feColorMatrix type="matrix" values="0 0 0 0 0 0 0 0 0 0 0 0 0 0 0 0 0 0 0.05 0"/>
<feBlend mode="normal" in2="BackgroundImageFix" result="effect1_dropShadow_4:44"/>
<feBlend mode="normal" in="SourceGraphic" in2="effect1_dropShadow_4:44" result="shape"/>
</filter>
<filter id="filter1_d_4:44" x="46.0059" y="116.439" width="198.082" height="58.8145" filterUnits="userSpaceOnUse" color-interpolation-filters="sRGB">
<feFlood flood-opacity="0" result="BackgroundImageFix"/>
<feColorMatrix in="SourceAlpha" type="matrix" values="0 0 0 0 0 0 0 0 0 0 0 0 0 0 0 0 0 0 127 0" result="hardAlpha"/>
<feOffset/>
<feGaussianBlur stdDeviation="10"/>
<feComposite in2="hardAlpha" operator="out"/>
<feColorMatrix type="matrix" values="0 0 0 0 0.35 0 0 0 0 0.35 0 0 0 0 0.35 0 0 0 0.15 0"/>
<feBlend mode="normal" in2="BackgroundImageFix" result="effect1_dropShadow_4:44"/>
<feBlend mode="normal" in="SourceGraphic" in2="effect1_dropShadow_4:44" result="shape"/>
</filter>
</defs>
</svg>
